<?xml version="1.0" encoding="UTF-8"?>
<svg width="1200pt" height="1200pt" version="1.1" viewBox="0 0 1200 1200" xmlns="http://www.w3.org/2000/svg">
 <path d="m600.03 152.32c79.199 0 160.78-152.3 160.78-152.3s-5.5664 172.67 63.047 212.29c68.586 39.586 215.39-51.508 215.39-51.508s-91.156 146.78-51.539 215.39c39.617 68.57 212.29 63.078 212.29 63.078 0-0.003906-152.32 81.543-152.32 160.77 0 79.188 152.29 160.77 152.29 160.77s-172.67-5.5391-212.29 63.078c-39.586 68.586 51.508 215.36 51.508 215.36s-146.78-91.125-215.39-51.523c-68.586 39.617-63.078 212.27-63.078 212.27 0.003906 0-81.543-152.3-160.76-152.32-79.203 0.015625-160.77 152.29-160.77 152.29s5.5078-172.67-63.062-212.27c-68.602-39.586-215.38 51.508-215.38 51.508s91.109-146.79 51.523-215.38c-39.613-68.598-212.27-63.09-212.27-63.09s152.3-81.578 152.3-160.77c0-79.203-152.27-160.77-152.27-160.77s172.67 5.5078 212.27-63.078c39.602-68.586-51.508-215.36-51.508-215.36s146.79 91.109 215.38 51.508c68.602-39.598 63.094-212.25 63.094-212.25s81.562 152.3 160.77 152.3zm-0.03125 38.398c-226.05 0-409.3 183.26-409.3 409.3s183.26 409.3 409.3 409.3 409.29-183.26 409.29-409.3-183.25-409.3-409.29-409.3zm0 49.965c-198.45 0-359.34 160.88-359.34 359.34 0 198.45 160.88 359.34 359.34 359.34 198.45 0 359.34-160.88 359.34-359.34s-160.89-359.34-359.34-359.34z" fill="black"/>
</svg>
