<svg xmlns="http://www.w3.org/2000/svg" width="20" height="20" viewBox="0 0 42 42" fill="black">
  <path fill-rule="evenodd" clip-rule="evenodd" d="M21 0.270386C21.2761 0.270386 21.5 0.494243 21.5 0.770386V7.38625C21.5 7.6624 21.2761 7.88625 21 7.88625C20.7239 7.88625 20.5 7.6624 20.5 7.38625V0.770386C20.5 0.494243 20.7239 0.270386 21 0.270386ZM33.129 21.0645C33.129 27.7276 27.7276 33.129 21.0645 33.129C14.4015 33.129 9 27.7276 9 21.0645C9 14.4015 14.4015 9 21.0645 9C27.7276 9 33.129 14.4015 33.129 21.0645ZM21.5 34.7704C21.5 34.4942 21.2761 34.2704 21 34.2704C20.7239 34.2704 20.5 34.4942 20.5 34.7704V41.3863C20.5 41.6624 20.7239 41.8863 21 41.8863C21.2761 41.8863 21.5 41.6624 21.5 41.3863V34.7704ZM34.2784 21C34.2784 20.7239 34.5022 20.5 34.7784 20.5H41.3942C41.6704 20.5 41.8942 20.7239 41.8942 21C41.8942 21.2761 41.6704 21.5 41.3942 21.5H34.7784C34.5022 21.5 34.2784 21.2761 34.2784 21ZM30.6464 11.3245C30.4512 11.5198 30.4512 11.8364 30.6464 12.0317C30.8417 12.2269 31.1583 12.2269 31.3536 12.0317L36.0317 7.35353C36.2269 7.15827 36.2269 6.84168 36.0317 6.64642C35.8364 6.45116 35.5198 6.45116 35.3246 6.64642L30.6464 11.3245ZM30.6464 29.6464C30.8417 29.4512 31.1583 29.4512 31.3536 29.6464L36.0317 34.3246C36.2269 34.5198 36.2269 34.8364 36.0317 35.0317C35.8364 35.2269 35.5198 35.2269 35.3246 35.0317L30.6464 30.3536C30.4512 30.1583 30.4512 29.8417 30.6464 29.6464ZM6.35355 6.64645C6.15829 6.45118 5.84171 6.45118 5.64645 6.64645C5.45118 6.84171 5.45118 7.15829 5.64645 7.35355L10.3246 12.0317C10.5198 12.2269 10.8364 12.2269 11.0317 12.0317C11.2269 11.8364 11.2269 11.5198 11.0317 11.3246L6.35355 6.64645ZM5.64645 35.0317C5.45118 34.8364 5.45118 34.5198 5.64645 34.3245L10.3246 29.6464C10.5198 29.4512 10.8364 29.4512 11.0317 29.6464C11.2269 29.8417 11.2269 30.1583 11.0317 30.3535L6.35355 35.0317C6.15829 35.2269 5.84171 35.2269 5.64645 35.0317ZM0.778381 20.5C0.502239 20.5 0.278381 20.7239 0.278381 21C0.278381 21.2761 0.502239 21.5 0.778381 21.5H7.39425C7.67039 21.5 7.89425 21.2761 7.89425 21C7.89425 20.7239 7.67039 20.5 7.39425 20.5H0.778381Z" fill="inherit"/>
</svg>