<svg width="32" height="31" viewBox="0 0 32 31" fill="none" xmlns="http://www.w3.org/2000/svg">
<path fill-rule="evenodd" clip-rule="evenodd" d="M16 0.250001C7.29925 0.250001 0.25 7.2925 0.25 15.9843C0.25 22.9368 4.7635 28.8318 11.0208 30.913C11.8083 31.057 12.0962 30.571 12.0962 30.1548C12.0962 29.7813 12.0828 28.7913 12.0738 27.4773C7.693 28.429 6.7705 25.369 6.7705 25.369C6.05275 23.551 5.02 23.0673 5.02 23.0673C3.59125 22.0908 5.128 22.111 5.128 22.111C6.70975 22.2235 7.54225 23.731 7.54225 23.731C8.94625 26.1385 11.2277 25.441 12.1255 25.0405C12.2672 24.0235 12.6745 23.3305 13.1245 22.9368C9.628 22.5408 5.9515 21.1908 5.9515 15.1608C5.9515 13.444 6.56575 12.0378 7.5715 10.9398C7.4095 10.5415 6.8695 8.94175 7.729 6.77725C7.729 6.77725 9.0475 6.352 12.058 8.38825C13.3428 8.0382 14.6683 7.85965 16 7.85725C17.3388 7.864 18.6865 8.03725 19.9443 8.38825C22.9503 6.352 24.271 6.775 24.271 6.775C25.1305 8.94175 24.5905 10.5415 24.4285 10.9375C25.4365 12.04 26.0485 13.444 26.0485 15.1608C26.0485 21.2043 22.363 22.5363 18.8553 22.9233C19.42 23.4093 19.924 24.37 19.924 25.8393C19.924 27.9408 19.9037 29.6373 19.9037 30.1548C19.9037 30.5755 20.1895 31.0638 20.9883 30.9108C24.1211 29.8661 26.8461 27.8626 28.7774 25.1838C30.7088 22.5051 31.7487 19.2867 31.75 15.9843C31.7476 11.8093 30.087 7.8062 27.1333 4.85552C24.1797 1.90484 20.175 0.248211 16 0.250001Z" fill="black"/>
</svg>
